<svg width="100" height="100" viewBox="0 0 100 100" fill="none" xmlns="http://www.w3.org/2000/svg">
<path d="M62.4999 45.8333V45.875M21.5541 34.9083C19.7266 33.5038 18.323 31.6213 17.4985 29.4689C16.674 27.3165 16.4607 24.978 16.8821 22.712C17.3035 20.4459 18.3432 18.3405 19.8864 16.6284C21.4296 14.9164 23.4161 13.6643 25.6263 13.0106C27.8366 12.3569 30.1846 12.3271 32.4107 12.9244C34.6369 13.5217 36.6546 14.7229 38.2407 16.3952C39.8269 18.0675 40.9198 20.1459 41.3987 22.4005C41.8775 24.6551 41.7237 26.9982 40.9541 29.1708" stroke="white" stroke-width="2" stroke-linecap="round" stroke-linejoin="round"/>
<path d="M66.6666 16.6667V32.5125C71.8233 35.4964 75.7493 40.2185 77.7416 45.8334H83.3291C84.4341 45.8334 85.4939 46.2723 86.2753 47.0537C87.0567 47.8351 87.4957 48.895 87.4957 50V58.3334C87.4957 59.4384 87.0567 60.4982 86.2753 61.2796C85.4939 62.061 84.4341 62.5 83.3291 62.5H77.7374C76.3374 66.4584 73.9582 70 70.8291 72.8042V81.25C70.8291 82.9076 70.1706 84.4973 68.9985 85.6694C67.8264 86.8415 66.2367 87.5 64.5791 87.5C62.9215 87.5 61.3317 86.8415 60.1596 85.6694C58.9875 84.4973 58.3291 82.9076 58.3291 81.25V78.8209C56.9522 79.0515 55.5585 79.1672 54.1624 79.1667H37.4957C36.0997 79.1672 34.706 79.0515 33.3291 78.8209V81.25C33.3291 82.9076 32.6706 84.4973 31.4985 85.6694C30.3264 86.8415 28.7367 87.5 27.0791 87.5C25.4215 87.5 23.8317 86.8415 22.6596 85.6694C21.4875 84.4973 20.8291 82.9076 20.8291 81.25V72.8042C17.0539 69.4291 14.3927 64.987 13.1977 60.0661C12.0028 55.1452 12.3304 49.9774 14.1372 45.2468C15.9439 40.5161 19.1447 36.4457 23.3159 33.5743C27.487 30.7029 32.4318 29.1659 37.4957 29.1667H47.9124L66.6624 16.6667H66.6666Z" stroke="white" stroke-width="2" stroke-linecap="round" stroke-linejoin="round"/>
</svg>
